# xmcd CD database file
#
# Track frame offsets:
#	150
#	20296
#	43950
#	64991
#	83786
#	103800
#	126013
#	147325
#	172131
#	193921
#	210432
#
# Disc length: 3107 seconds
#
# Revision: 3
# Processed by: cddbd v1.5.2PL0 Copyright (c) Steve Scherf et al.
# Submitted via: CDex 1.70beta2
#
DISCID=a40c210b
DTITLE=Karim Ziad - Dawi
DYEAR=2007
DGENRE=Jazz
TTITLE0=Karim Ziad - Selmani Part 1
TTITLE1=Karim Ziad - Dawi
TTITLE2=Karim Ziad - Lala Aicha
TTITLE3=Karim Ziad - Had Zmen
TTITLE4=Karim Ziad - Houaria
TTITLE5=Karim Ziad - Jilala
TTITLE6=Karim Ziad - Mektoub
TTITLE7=Karim Ziad - Malaika
TTITLE8=Karim Ziad - Jazzayer - Tribute to Aziz Djemam
TTITLE9=Karim Ziad - Selmani Part 2
TTITLE10=Karim Ziad - Hamdouchia
EXTD=YEAR: 2007
EXTT0=
EXTT1=
EXTT2=
EXTT3=
EXTT4=
EXTT5=
EXTT6=
EXTT7=
EXTT8=
EXTT9=
EXTT10=
PLAYORDER=
